<?xml version="1.0" encoding="UTF-8"?> <svg xmlns="http://www.w3.org/2000/svg" xmlns:xlink="http://www.w3.org/1999/xlink" xmlns:svgjs="http://svgjs.com/svgjs" width="512" height="512" x="0" y="0" viewBox="0 0 512 512" style="enable-background:new 0 0 512 512" xml:space="preserve" class=""> <g> <path xmlns="http://www.w3.org/2000/svg" style="" d="M437.737,503.641H74.263c-25.435,0-46.054-20.619-46.054-46.054V87.714 c0-25.435,20.619-46.054,46.054-46.054h363.474c25.435,0,46.054,20.619,46.054,46.054v369.872 C483.792,483.022,463.173,503.641,437.737,503.641z" fill="#f2f2f2" data-original="#f2f2f2"></path> <path xmlns="http://www.w3.org/2000/svg" style="" d="M472.273,488.018c1.537-1.73,2.949-3.589,4.222-5.568c0.053-0.084,0.107-0.166,0.161-0.25 c0.282-0.445,0.557-0.894,0.825-1.35c0.026-0.045,0.051-0.089,0.077-0.134c1.142-1.963,2.142-4.017,2.989-6.15 c0.028-0.07,0.056-0.139,0.082-0.21c2.034-5.198,3.163-10.85,3.163-16.77V87.714c0-25.435-20.619-46.054-46.054-46.054h-30.85 c25.435,0,46.054,20.619,46.054,46.054v346.16c0,21.493-17.424,38.917-38.917,38.917H30.79c6.282,17.961,23.368,30.85,43.473,30.85 h332.635c13.949,0.001,28.108,1.875,41.832-1.52C457.906,499.851,466.094,494.976,472.273,488.018z" fill="#cccccc" data-original="#cccccc"></path> <path xmlns="http://www.w3.org/2000/svg" style="" d="M437.737,41.66H74.263c-25.435,0-46.054,20.619-46.054,46.054v67.165h455.584V87.714 C483.792,62.279,463.173,41.66,437.737,41.66z" fill="#ed1c24" data-original="#fb0125" class=""></path> <path xmlns="http://www.w3.org/2000/svg" style="" d="M452.942,87.714v67.165h30.85V87.714c0-6.794-1.483-13.239-4.125-19.044 c-0.298-0.655-0.611-1.301-0.937-1.939c-0.31-0.604-0.632-1.2-0.967-1.789c-1.313-2.304-2.81-4.491-4.487-6.523 c-0.469-0.568-0.952-1.126-1.448-1.671c-0.738-0.811-1.512-1.587-2.306-2.344c-0.806-0.769-1.629-1.519-2.49-2.228 c-0.568-0.469-1.149-0.925-1.74-1.368c-1.183-0.884-2.409-1.713-3.675-2.482c-0.633-0.385-1.276-0.755-1.928-1.109 c-5.221-2.835-11.051-4.692-17.243-5.321c-1.548-0.157-3.12-0.237-4.709-0.237h-30.85C432.323,41.66,452.942,62.279,452.942,87.714z " fill="#cc111e" data-original="#cc111e"></path> <polygon xmlns="http://www.w3.org/2000/svg" style="" points="241.177,378.991 241.177,428.268 207.893,428.268 207.893,467.905 323.131,467.905 323.131,428.268 296.06,428.268 296.06,190.163 266.275,190.163 188.869,248.527 207.932,276.417 241.177,260.166 241.177,348.678 " fill="#ed1c24" data-original="#fb0125" class=""></polygon> <g xmlns="http://www.w3.org/2000/svg"> <path style="" d="M107.941,106.803L107.941,106.803c-12.928,0-23.409-10.48-23.409-23.409V31.768 c0-12.928,10.48-23.409,23.409-23.409l0,0c12.928,0,23.409,10.48,23.409,23.409v51.627 C131.349,96.323,120.869,106.803,107.941,106.803z" fill="#cccccc" data-original="#cccccc"></path> <path style="" d="M198.286,106.803L198.286,106.803c-12.928,0-23.409-10.48-23.409-23.409V31.768 c0-12.928,10.48-23.409,23.409-23.409l0,0c12.928,0,23.409,10.48,23.409,23.409v51.627 C221.695,96.323,211.213,106.803,198.286,106.803z" fill="#cccccc" data-original="#cccccc"></path> <path style="" d="M288.63,106.803L288.63,106.803c-12.928,0-23.409-10.48-23.409-23.409V31.768 c0-12.928,10.48-23.409,23.409-23.409l0,0c12.928,0,23.409,10.48,23.409,23.409v51.627 C312.039,96.323,301.559,106.803,288.63,106.803z" fill="#cccccc" data-original="#cccccc"></path> <path style="" d="M378.975,106.803L378.975,106.803c-12.928,0-23.409-10.48-23.409-23.409V31.768 c0-12.928,10.48-23.409,23.409-23.409l0,0c12.928,0,23.409,10.48,23.409,23.409v51.627 C402.384,96.323,391.904,106.803,378.975,106.803z" fill="#cccccc" data-original="#cccccc"></path> </g> <g xmlns="http://www.w3.org/2000/svg"> <path style="" d="M378.975,8.359c-2.605,0-5.101,0.444-7.441,1.228v95.989c2.339,0.785,4.836,1.228,7.441,1.228 c12.928,0,23.408-10.48,23.408-23.409V31.768C402.384,18.839,391.904,8.359,378.975,8.359z" fill="#b3b3b3" data-original="#b3b3b3"></path> <path style="" d="M288.63,8.359c-2.605,0-5.101,0.444-7.441,1.228v95.989c2.339,0.785,4.836,1.228,7.441,1.228 c12.928,0,23.408-10.48,23.408-23.409V31.768C312.039,18.839,301.558,8.359,288.63,8.359z" fill="#b3b3b3" data-original="#b3b3b3"></path> <path style="" d="M198.286,8.359c-2.605,0-5.101,0.444-7.441,1.228v95.989c2.339,0.785,4.836,1.228,7.441,1.228 c12.928,0,23.408-10.48,23.408-23.409V31.768C221.695,18.839,211.213,8.359,198.286,8.359z" fill="#b3b3b3" data-original="#b3b3b3"></path> <path style="" d="M107.941,8.359c-2.605,0-5.101,0.444-7.441,1.228v95.989c2.339,0.785,4.836,1.228,7.441,1.228 c12.928,0,23.408-10.48,23.408-23.409V31.768C131.349,18.839,120.869,8.359,107.941,8.359z" fill="#b3b3b3" data-original="#b3b3b3"></path> </g> <g xmlns="http://www.w3.org/2000/svg"> <path style="" d="M296.06,181.804h-29.785c-1.816,0-3.583,0.592-5.033,1.685l-77.406,58.365 c-3.565,2.688-4.389,7.705-1.868,11.392l19.063,27.889c2.342,3.426,6.841,4.615,10.572,2.793l21.214-10.371v61.97 c0,4.616,3.742,8.359,8.359,8.359s8.359-3.743,8.359-8.359v-75.361c0-2.883-1.487-5.564-3.932-7.091 c-2.446-1.527-5.507-1.685-8.098-0.419l-26.751,13.077l-10.482-15.335l68.8-51.876h18.628V428.27c0,4.616,3.742,8.359,8.359,8.359 h18.712v22.917h-98.52v-22.917h24.925c4.618,0,8.359-3.743,8.359-8.359v-60.559c0-4.616-3.742-8.359-8.359-8.359 s-8.359,3.743-8.359,8.359v52.2h-24.925c-4.618,0-8.359,3.743-8.359,8.359v39.636c0,4.616,3.742,8.359,8.359,8.359h115.24 c4.618,0,8.359-3.743,8.359-8.359V428.27c0-4.616-3.742-8.359-8.359-8.359h-18.712V190.163 C304.419,185.546,300.676,181.804,296.06,181.804z" fill="#1a1a1a" data-original="#1a1a1a" class=""></path> <path style="" d="M437.737,33.299h-26.994v-1.533C410.743,14.251,396.492,0,378.975,0 c-17.517,0-31.768,14.251-31.768,31.767v1.533h-26.809v-1.533C320.398,14.251,306.148,0,288.63,0 c-17.516,0-31.767,14.251-31.767,31.767v1.533h-26.811v-1.533C230.053,14.251,215.802,0,198.286,0 c-17.517,0-31.768,14.251-31.768,31.767v1.533h-26.808v-1.533C139.709,14.251,125.457,0,107.941,0S76.174,14.251,76.174,31.767 v1.533h-1.911c-30.004,0-54.412,24.41-54.412,54.414v67.143c0,0.008-0.001,0.014-0.001,0.021s0.001,0.014,0.001,0.021v72.235 c0,4.616,3.742,8.359,8.359,8.359s8.359-3.743,8.359-8.359v-63.896h438.865v294.348c0,20.785-16.91,37.695-37.695,37.695H74.263 c-20.784,0-37.694-16.91-37.694-37.695V259.179c0-4.616-3.742-8.359-8.359-8.359s-8.359,3.743-8.359,8.359v198.407 C19.85,487.59,44.259,512,74.263,512h363.475c30.004,0,54.414-24.41,54.414-54.414V87.714 C492.151,57.71,467.741,33.299,437.737,33.299z M363.925,31.767c0-8.298,6.752-15.049,15.05-15.049s15.05,6.751,15.05,15.049v9.892 v41.736c0,7.78-5.934,14.199-13.513,14.972c-0.505,0.051-1.018,0.078-1.537,0.078s-1.031-0.027-1.537-0.078 c-7.579-0.772-13.513-7.192-13.513-14.972V41.659V31.767z M273.582,31.767c0-8.298,6.751-15.049,15.049-15.049 c8.298,0,15.05,6.751,15.05,15.049v9.892v41.736c0,7.78-5.934,14.199-13.513,14.972c-0.505,0.051-1.018,0.078-1.537,0.078 s-1.031-0.027-1.537-0.078c-7.579-0.772-13.512-7.192-13.512-14.972V41.659V31.767z M183.236,31.767 c0-8.298,6.752-15.049,15.05-15.049c8.298,0,15.049,6.751,15.049,15.049v9.892v41.736c0,7.78-5.933,14.199-13.512,14.972 c-0.505,0.051-1.018,0.078-1.537,0.078c-0.519,0-1.031-0.027-1.537-0.078c-7.579-0.772-13.513-7.192-13.513-14.972V41.659 L183.236,31.767L183.236,31.767z M92.892,31.767c0-8.298,6.75-15.049,15.049-15.049s15.05,6.751,15.05,15.049v9.892v41.736 c0,7.78-5.934,14.199-13.513,14.972c-0.505,0.051-1.018,0.078-1.537,0.078s-1.031-0.027-1.537-0.078 c-7.579-0.772-13.512-7.192-13.512-14.972V41.659V31.767z M36.568,146.519V87.714c0-20.785,16.91-37.695,37.694-37.695h1.911 v33.376c0,17.517,14.251,31.768,31.767,31.768c17.517,0,31.768-14.251,31.768-31.768V50.018h26.809v33.376 c0,17.517,14.251,31.768,31.768,31.768c17.516,0,31.767-14.251,31.767-31.768V50.018h26.811v33.376 c0,17.517,14.251,31.768,31.767,31.768c17.517,0,31.768-14.251,31.768-31.768V50.018h26.809v33.376 c0,17.517,14.251,31.768,31.768,31.768c17.517,0,31.768-14.251,31.768-31.768V50.018h26.994c20.785,0,37.695,16.91,37.695,37.695 v58.806L36.568,146.519L36.568,146.519z" fill="#1a1a1a" data-original="#1a1a1a" class=""></path> </g> <g xmlns="http://www.w3.org/2000/svg"> </g> <g xmlns="http://www.w3.org/2000/svg"> </g> <g xmlns="http://www.w3.org/2000/svg"> </g> <g xmlns="http://www.w3.org/2000/svg"> </g> <g xmlns="http://www.w3.org/2000/svg"> </g> <g xmlns="http://www.w3.org/2000/svg"> </g> <g xmlns="http://www.w3.org/2000/svg"> </g> <g xmlns="http://www.w3.org/2000/svg"> </g> <g xmlns="http://www.w3.org/2000/svg"> </g> <g xmlns="http://www.w3.org/2000/svg"> </g> <g xmlns="http://www.w3.org/2000/svg"> </g> <g xmlns="http://www.w3.org/2000/svg"> </g> <g xmlns="http://www.w3.org/2000/svg"> </g> <g xmlns="http://www.w3.org/2000/svg"> </g> <g xmlns="http://www.w3.org/2000/svg"> </g> </g> </svg> 