<?xml version="1.0" encoding="UTF-8"?> <svg xmlns="http://www.w3.org/2000/svg" xmlns:xlink="http://www.w3.org/1999/xlink" xmlns:svgjs="http://svgjs.com/svgjs" width="512" height="512" x="0" y="0" viewBox="0 0 512 512" style="enable-background:new 0 0 512 512" xml:space="preserve" class=""> <g> <path xmlns="http://www.w3.org/2000/svg" style="" d="M107.315,504.455c-19.353,0-35.096-15.744-35.096-35.096V96.536 c0-19.353,15.744-35.096,35.096-35.096h297.37c19.353,0,35.096,15.744,35.096,35.096v372.822c0,19.353-15.744,35.096-35.096,35.096 H107.315z" fill="#ed1c24" data-original="#ed8800"></path> <path xmlns="http://www.w3.org/2000/svg" style="" d="M404.685,61.44h-32.337c19.353,0,35.096,15.744,35.096,35.096v372.822 c0,19.353-15.744,35.096-35.096,35.096h32.337c19.351,0,35.096-15.744,35.096-35.096V96.536 C439.781,77.184,424.037,61.44,404.685,61.44z" fill="#990808" data-original="#cc7400" class=""></path> <path xmlns="http://www.w3.org/2000/svg" style="" d="M380.837,104.556H131.163c-8.728,0-15.828,7.1-15.828,15.828v243.945v81.183 c0,8.728,7.1,15.828,15.828,15.828h81.183h87.309h81.183c8.728,0,15.828-7.1,15.828-15.828v-81.183V120.384 C396.665,111.656,389.565,104.556,380.837,104.556z" fill="#ece5dd" data-original="#ece5dd"></path> <path xmlns="http://www.w3.org/2000/svg" style="" d="M380.837,104.556h-32.337c8.728,0,15.828,7.1,15.828,15.828v243.945v81.183 c0,8.728-7.1,15.828-15.828,15.828h32.337c8.728,0,15.828-7.1,15.828-15.828v-81.183V120.384 C396.665,111.656,389.565,104.556,380.837,104.556z" fill="#d9cbbd" data-original="#d9cbbd"></path> <path xmlns="http://www.w3.org/2000/svg" style="" d="M202.105,105.634c-18.127,0-32.876-14.748-32.876-32.876s14.749-32.876,32.876-32.876h11.721 C218.927,20.82,236.21,7.545,256,7.545s37.073,13.276,42.174,32.337h11.721c18.127,0,32.876,14.748,32.876,32.876 s-14.749,32.876-32.876,32.876H202.105z" fill="#3e3d43" data-original="#3e3d43"></path> <path xmlns="http://www.w3.org/2000/svg" style="" d="M197.672,363.251c8.686,0,15.751,7.067,15.751,15.751l0.762,82.337l-98.85-98.85L197.672,363.251z" fill="#d9cbbd" data-original="#d9cbbd"></path> <path xmlns="http://www.w3.org/2000/svg" style="" d="M115.335,362.488l98.85,98.85h-83.023c-8.728,0-15.828-7.1-15.828-15.828V362.488z" fill="#c0ab91" data-original="#c0ab91"></path> <g xmlns="http://www.w3.org/2000/svg"> <path style="" d="M169.768,177.853h107.789c4.466,0,8.084-3.62,8.084-8.084c0-4.465-3.618-8.084-8.084-8.084H169.768 c-4.466,0-8.084,3.62-8.084,8.084C161.684,174.233,165.303,177.853,169.768,177.853z" fill="#bababa" data-original="#bababa" class=""></path> <path style="" d="M320.674,177.853h21.558c4.466,0,8.084-3.62,8.084-8.084c0-4.465-3.618-8.084-8.084-8.084h-21.558 c-4.466,0-8.084,3.62-8.084,8.084C312.589,174.233,316.208,177.853,320.674,177.853z" fill="#bababa" data-original="#bababa" class=""></path> <path style="" d="M169.768,242.526h43.116c4.466,0,8.084-3.62,8.084-8.084c0-4.465-3.618-8.084-8.084-8.084h-43.116 c-4.466,0-8.084,3.62-8.084,8.084C161.684,238.907,165.303,242.526,169.768,242.526z" fill="#bababa" data-original="#bababa" class=""></path> <path style="" d="M247.916,234.442c0,4.465,3.618,8.084,8.084,8.084h64.674c4.466,0,8.084-3.62,8.084-8.084 c0-4.465-3.618-8.084-8.084-8.084H256C251.534,226.358,247.916,229.977,247.916,234.442z" fill="#bababa" data-original="#bababa" class=""></path> <path style="" d="M169.768,307.2h129.347c4.466,0,8.084-3.62,8.084-8.084c0-4.465-3.618-8.084-8.084-8.084H169.768 c-4.466,0-8.084,3.62-8.084,8.084C161.684,303.58,165.303,307.2,169.768,307.2z" fill="#bababa" data-original="#bababa" class=""></path> </g> <circle xmlns="http://www.w3.org/2000/svg" style="" cx="256" cy="51.2" r="10.779" fill="#ffffff" data-original="#ffffff" class=""></circle> <circle xmlns="http://www.w3.org/2000/svg" cx="256" cy="51.2" r="13.649" fill="#000000" data-original="#000000" style="" class=""></circle> <path xmlns="http://www.w3.org/2000/svg" d="M404.685,53.895h-59.056c-6.789-12.809-20.256-21.558-35.734-21.558h-6.279C295.983,13.017,277.222,0,256,0 s-39.983,13.017-47.616,32.337h-6.279c-15.479,0-28.946,8.749-35.734,21.558h-59.056c-23.513,0-42.642,19.129-42.642,42.642v372.822 c0,23.512,19.128,42.642,42.642,42.642h297.37c23.512,0,42.642-19.129,42.642-42.642V96.536 C447.326,73.024,428.198,53.895,404.685,53.895z M202.105,48.505h12.137c3.689,0,6.909-2.496,7.829-6.069 C226.053,26.97,240.005,16.168,256,16.168s29.947,10.802,33.93,26.268c0.919,3.572,4.14,6.069,7.829,6.069h12.137 c13.372,0,24.253,10.879,24.253,24.253s-10.881,24.253-24.254,24.253H202.105c-13.372,0-24.253-10.879-24.253-24.253 S188.733,48.505,202.105,48.505z M431.158,469.358c0,14.597-11.876,26.473-26.473,26.473h-297.37 c-14.597,0-26.473-11.876-26.473-26.473V96.536c0-14.597,11.876-26.473,26.473-26.473h54.469c-0.059,0.891-0.1,1.788-0.1,2.695 c0,22.289,18.132,40.421,40.421,40.421h107.789c22.289,0,40.421-18.132,40.421-40.421c0-0.907-0.041-1.803-0.1-2.695h54.469 c14.597,0,26.473,11.876,26.473,26.473V469.358z" fill="#000000" data-original="#000000" style="" class=""></path> <path xmlns="http://www.w3.org/2000/svg" d="M107.789,120.384v325.128c0,12.909,10.464,23.373,23.373,23.373h184.695c4.465,0,8.084-3.62,8.084-8.084 c0-4.465-3.62-8.084-8.084-8.084h-94.889v-73.714c0-12.867-10.431-23.297-23.297-23.297h-73.714V120.384 c0-3.979,3.225-7.205,7.205-7.205h17.048c4.548,0,8.218-3.754,8.081-8.333c-0.133-4.425-3.993-7.835-8.419-7.835h-16.71 C118.254,97.011,107.789,107.475,107.789,120.384z M204.8,441.284l-69.41-69.41h62.281c3.93,0,7.128,3.197,7.128,7.128v62.282H204.8 z M123.958,383.307l69.409,69.409h-62.204c-3.973,0-7.205-3.233-7.205-7.205C123.958,445.511,123.958,383.307,123.958,383.307z" fill="#000000" data-original="#000000" style="" class=""></path> <path xmlns="http://www.w3.org/2000/svg" d="M351.503,452.716h29.335c3.979,0,7.205-3.225,7.205-7.205V120.384c0-3.98-3.226-7.205-7.205-7.205h-16.71 c-4.426,0-8.287-3.41-8.419-7.835c-0.137-4.579,3.533-8.333,8.081-8.333h17.048c12.909,0,23.373,10.464,23.373,23.373v325.128 c0,12.909-10.464,23.373-23.373,23.373h-29.335c-4.465,0-8.084-3.62-8.084-8.084C343.418,456.335,347.038,452.716,351.503,452.716z" fill="#000000" data-original="#000000" style="" class=""></path> <g xmlns="http://www.w3.org/2000/svg"> </g> <g xmlns="http://www.w3.org/2000/svg"> </g> <g xmlns="http://www.w3.org/2000/svg"> </g> <g xmlns="http://www.w3.org/2000/svg"> </g> <g xmlns="http://www.w3.org/2000/svg"> </g> <g xmlns="http://www.w3.org/2000/svg"> </g> <g xmlns="http://www.w3.org/2000/svg"> </g> <g xmlns="http://www.w3.org/2000/svg"> </g> <g xmlns="http://www.w3.org/2000/svg"> </g> <g xmlns="http://www.w3.org/2000/svg"> </g> <g xmlns="http://www.w3.org/2000/svg"> </g> <g xmlns="http://www.w3.org/2000/svg"> </g> <g xmlns="http://www.w3.org/2000/svg"> </g> <g xmlns="http://www.w3.org/2000/svg"> </g> <g xmlns="http://www.w3.org/2000/svg"> </g> </g> </svg> 