<?xml version="1.0" encoding="UTF-8"?> <svg xmlns="http://www.w3.org/2000/svg" xmlns:xlink="http://www.w3.org/1999/xlink" xmlns:svgjs="http://svgjs.com/svgjs" width="512" height="512" x="0" y="0" viewBox="0 0 480 480" style="enable-background:new 0 0 512 512" xml:space="preserve" class=""> <g> <path xmlns="http://www.w3.org/2000/svg" style="" d="M184,152c0,8.837,7.163,16,16,16h208c35.346,0,64-28.654,64-64V72c0-35.346-28.654-64-64-64H200 c-8.837,0-16,7.163-16,16V152z" fill="#ed1c24" data-original="#ffaf46"></path> <path xmlns="http://www.w3.org/2000/svg" style="" d="M120,107.504c-0.003,7.344,4.995,13.747,12.12,15.528L184,136V40l-51.88,12.968 c-7.125,1.781-12.123,8.184-12.12,15.528V107.504z" fill="#a3a2a9" data-original="#a3a2a9"></path> <path xmlns="http://www.w3.org/2000/svg" style="" d="M232,376c-8.837,0-16,7.163-16,16v64c0,8.837,7.163,16,16,16h192c8.837,0,16-7.163,16-16v-64 c0-8.837-7.163-16-16-16H232z" fill="#7c7c80" data-original="#7c7c80"></path> <path xmlns="http://www.w3.org/2000/svg" style="" d="M324.96,240L304,376h104V168h-72L324.96,240z" fill="#898890" data-original="#898890"></path> <path xmlns="http://www.w3.org/2000/svg" style="" d="M120,104V72H88v16v16H120z" fill="#a3a2a9" data-original="#a3a2a9"></path> <path xmlns="http://www.w3.org/2000/svg" style="" d="M296,168l1.544,7.744c4.183,20.954,1.255,42.705-8.32,61.808L288,240h36.96L336,168H296z" fill="#ed1c24" data-original="#ffaf46"></path> <g xmlns="http://www.w3.org/2000/svg"> <path style="" d="M408,0H200c-13.255,0-24,10.745-24,24v9.752l-45.824,11.456c-9.07,2.266-15.99,9.605-17.72,18.792 H88c-4.418,0-8,3.582-8,8v8H8c-4.418,0-8,3.582-8,8c0,4.418,3.582,8,8,8h72v8c0,4.418,3.582,8,8,8h24.456 c1.73,9.187,8.65,16.526,17.72,18.792L176,142.248V152c0,13.255,10.745,24,24,24h89.44l0.264,1.312 c3.637,18.482,1.274,37.643-6.744,54.688H272c-4.418,0-8,3.582-8,8c0,4.418,3.582,8,8,8h43.6l-18.464,120H232 c-13.255,0-24,10.745-24,24v64c0,13.255,10.745,24,24,24h192c13.255,0,24-10.745,24-24v-64c0-13.255-10.745-24-24-24h-8V175.528 c36.412-4.111,63.947-34.885,64-71.528V72C479.952,32.256,447.744,0.049,408,0L408,0z M96,80h16v16H96V80z M134.064,115.272 c-3.566-0.889-6.067-4.093-6.064-7.768V68.496c-0.003-3.675,2.498-6.879,6.064-7.768L176,50.248v75.504L134.064,115.272z M300.416,232c6.854-17.831,8.694-37.198,5.32-56h20.944l-8.616,56H300.416z M432,392v64c0,4.418-3.582,8-8,8H232 c-4.418,0-8-3.582-8-8v-64c0-4.418,3.582-8,8-8h192C428.418,384,432,387.582,432,392z M313.328,368l29.536-192H400v192H313.328z M464,104c-0.035,30.913-25.087,55.965-56,56H200c-4.418,0-8-3.582-8-8V24c0-4.418,3.582-8,8-8h208 c30.913,0.035,55.965,25.087,56,56V104z" fill="#231f20" data-original="#231f20"></path> <path style="" d="M424,48h-64c-4.418,0-8,3.582-8,8s3.582,8,8,8h64c4.418,0,8-3.582,8-8S428.418,48,424,48z" fill="#231f20" data-original="#231f20"></path> <path style="" d="M424,80h-64c-4.418,0-8,3.582-8,8c0,4.418,3.582,8,8,8h64c4.418,0,8-3.582,8-8 C432,83.582,428.418,80,424,80z" fill="#231f20" data-original="#231f20"></path> <path style="" d="M424,112h-64c-4.418,0-8,3.582-8,8s3.582,8,8,8h64c4.418,0,8-3.582,8-8S428.418,112,424,112z" fill="#231f20" data-original="#231f20"></path> </g> <g xmlns="http://www.w3.org/2000/svg"> </g> <g xmlns="http://www.w3.org/2000/svg"> </g> <g xmlns="http://www.w3.org/2000/svg"> </g> <g xmlns="http://www.w3.org/2000/svg"> </g> <g xmlns="http://www.w3.org/2000/svg"> </g> <g xmlns="http://www.w3.org/2000/svg"> </g> <g xmlns="http://www.w3.org/2000/svg"> </g> <g xmlns="http://www.w3.org/2000/svg"> </g> <g xmlns="http://www.w3.org/2000/svg"> </g> <g xmlns="http://www.w3.org/2000/svg"> </g> <g xmlns="http://www.w3.org/2000/svg"> </g> <g xmlns="http://www.w3.org/2000/svg"> </g> <g xmlns="http://www.w3.org/2000/svg"> </g> <g xmlns="http://www.w3.org/2000/svg"> </g> <g xmlns="http://www.w3.org/2000/svg"> </g> </g> </svg> 