<?xml version="1.0" encoding="UTF-8"?> <svg xmlns="http://www.w3.org/2000/svg" xmlns:xlink="http://www.w3.org/1999/xlink" xmlns:svgjs="http://svgjs.com/svgjs" width="512" height="512" x="0" y="0" viewBox="0 0 512 512" style="enable-background:new 0 0 512 512" xml:space="preserve" class=""> <g> <path xmlns="http://www.w3.org/2000/svg" style="" d="M157.951,194.564h8.15v5.104c0,27.705,20.516,59.187,45.907,74.654l-0.003,25.602 c0,2.404-1.567,4.527-3.865,5.236l-48.944,15.068l0.105,0.112c26.592,27.919,61.645,41.879,96.698,41.879 s70.106-13.96,96.698-41.879l0.109-0.116l-48.951-15.065c-2.297-0.709-3.864-2.832-3.864-5.236l-0.002-25.81 c25.405-15.475,45.91-46.926,45.91-74.644v-4.907h8.15c6.958,0,12.6-5.642,12.6-12.6v-24.678c0-6.958-5.641-12.6-12.6-12.6h-8.15 H166.102h-8.15c-6.959,0-12.6,5.642-12.6,12.6v24.678C145.352,188.923,150.992,194.564,157.951,194.564z" fill="#f5d4a9" data-original="#fed9a8" class=""></path> <g xmlns="http://www.w3.org/2000/svg"> <path style="" d="M352.698,320.342l0.109-0.116l-48.951-15.065c-0.861-0.266-1.62-0.73-2.232-1.335 c-1.02-1.007-1.632-2.399-1.632-3.901l-0.002-25.81c-6.088,3.709-12.455,6.51-18.893,8.11l-0.985,0.245 c-3.861,0.96-7.226,1.744-10.284,2.357v76.659C300.138,358.295,329.609,344.584,352.698,320.342z" fill="#eabe92" data-original="#eabe92" class=""></path> <path style="" d="M345.9,144.687h-30.148v54.784c0,34.36-31.507,74.474-64.803,82.754l-0.985,0.245 c-3.524,0.876-6.635,1.605-9.478,2.194c14.32,2.987,21.718,2.259,39.625-2.194l0.985-0.245c6.454-1.604,12.837-4.417,18.939-8.14 c1.53-0.933,3.041-1.925,4.532-2.97c0.048-0.034,0.095-0.064,0.143-0.098c0.626-0.44,1.246-0.896,1.864-1.356 c0.221-0.164,0.443-0.327,0.663-0.493c0.59-0.446,1.175-0.901,1.756-1.363c0.224-0.178,0.448-0.36,0.671-0.541 c0.593-0.48,1.184-0.963,1.768-1.46c0.107-0.091,0.212-0.185,0.319-0.277c1.94-1.663,3.828-3.416,5.658-5.243 c0.234-0.234,0.469-0.466,0.701-0.702c0.496-0.505,0.987-1.018,1.475-1.534c0.256-0.271,0.508-0.543,0.761-0.817 c0.477-0.516,0.952-1.035,1.419-1.56c0.229-0.258,0.452-0.52,0.679-0.78c0.993-1.141,1.965-2.301,2.909-3.484 c0.114-0.143,0.232-0.282,0.345-0.425c0.402-0.509,0.794-1.027,1.187-1.543c0.278-0.365,0.557-0.729,0.83-1.097 c0.368-0.494,0.728-0.994,1.086-1.494c0.289-0.404,0.576-0.811,0.859-1.219c0.339-0.488,0.676-0.975,1.006-1.467 c0.302-0.451,0.597-0.906,0.891-1.361c0.299-0.462,0.604-0.921,0.895-1.386c0.537-0.858,1.061-1.722,1.572-2.592 c0.245-0.418,0.479-0.841,0.716-1.261c0.306-0.54,0.612-1.08,0.908-1.623c0.239-0.44,0.472-0.883,0.704-1.326 c0.283-0.542,0.563-1.085,0.835-1.63c0.216-0.432,0.431-0.864,0.64-1.297c0.291-0.604,0.572-1.212,0.849-1.82 c0.17-0.374,0.346-0.745,0.511-1.119c0.42-0.953,0.824-1.91,1.208-2.869c0.115-0.286,0.219-0.575,0.33-0.862 c0.278-0.715,0.55-1.433,0.808-2.15c0.136-0.38,0.264-0.76,0.394-1.14c0.22-0.641,0.432-1.284,0.634-1.927 c0.121-0.384,0.241-0.769,0.356-1.152c0.205-0.686,0.396-1.371,0.582-2.058c0.088-0.326,0.181-0.652,0.265-0.977 c0.256-0.999,0.493-1.999,0.704-2.998c0.032-0.148,0.055-0.294,0.085-0.442c0.176-0.862,0.337-1.723,0.48-2.582 c0.056-0.337,0.103-0.673,0.154-1.009c0.102-0.682,0.196-1.364,0.276-2.043c0.043-0.359,0.082-0.718,0.119-1.076 c0.07-0.692,0.125-1.382,0.171-2.071c0.022-0.316,0.048-0.634,0.063-0.949c0.051-0.989,0.083-1.975,0.083-2.955 c0-0.004,0-0.008,0-0.008v-4.911l0,0L345.9,144.687L345.9,144.687z" fill="#eabe92" data-original="#eabe92" class=""></path> </g> <path xmlns="http://www.w3.org/2000/svg" style="" d="M365.708,123.748h-4.685v-10.237c0-0.819-0.011-1.635-0.031-2.449 c-1.254-49.393-41.307-88.4-89.304-88.4h-31.375c-47.998,0-88.051,39.007-89.305,88.4c-0.021,0.814-0.031,1.63-0.031,2.449v10.237 h-4.685c-4.348,0-7.874,3.629-7.874,8.105v10.522c0,4.477,3.525,8.106,7.874,8.106h219.416c4.348,0,7.874-3.629,7.874-8.105v-10.522 C373.582,127.377,370.057,123.748,365.708,123.748z" fill="#ed1c24" data-original="#ffa227" class=""></path> <path xmlns="http://www.w3.org/2000/svg" style="" d="M365.708,123.748h-4.685v-10.237c0-0.819-0.01-1.635-0.031-2.449 c-1.254-49.393-41.307-88.4-89.304-88.4h-30.236c47.998,0,88.051,39.007,89.304,88.4c0.021,0.814,0.031,1.63,0.031,2.449v10.237 h4.685c4.348,0,7.874,3.629,7.874,8.105v10.523c0,4.476-3.525,8.105-7.874,8.105h30.236c4.348,0,7.874-3.629,7.874-8.105v-10.523 C373.582,127.377,370.057,123.748,365.708,123.748z" fill="#b92026" data-original="#f78b0b" class=""></path> <path xmlns="http://www.w3.org/2000/svg" style="" d="M260.449,76.727h-8.889c-9.765,0-17.681-7.916-17.681-17.681V27.267 c0-9.765,7.916-17.681,17.681-17.681h8.889c9.765,0,17.681,7.916,17.681,17.681v31.779 C278.129,68.811,270.214,76.727,260.449,76.727z" fill="#585756" data-original="#ffcc5a" class=""></path> <path xmlns="http://www.w3.org/2000/svg" style="" d="M260.462,9.586h-8.917c-1.221,0-2.413,0.124-3.564,0.361v66.42c1.152,0.236,2.344,0.361,3.564,0.361 h8.917c9.757,0,17.668-7.922,17.668-17.695V27.281C278.129,17.508,270.219,9.586,260.462,9.586z" fill="#32260d" data-original="#ffb000" class=""></path> <path xmlns="http://www.w3.org/2000/svg" style="" d="M450.781,347.916L345.339,310.65c-2.133-0.753-4.507-0.214-6.106,1.387l-7.284,7.294 c-41.773,41.837-110.127,41.837-151.9,0l-7.284-7.294c-1.598-1.601-3.974-2.14-6.106-1.387L61.22,347.916 c-28.024,9.905-47.438,35.61-49.327,65.314l-4.574,71.937c-0.594,9.335,6.806,17.232,16.145,17.232h231.481h2.114h231.48 c9.339,0,16.738-7.898,16.145-17.232l-4.574-71.938C498.219,383.525,478.805,357.82,450.781,347.916z" fill="#585756" data-original="#ffcc5a" class=""></path> <path xmlns="http://www.w3.org/2000/svg" style="" d="M504.682,485.167l-4.574-71.938c-1.889-29.704-21.302-55.409-49.327-65.314l-4.988-1.763 c13.572,14.451,22.381,38.98,23.488,56.39l6.35,99.855h12.908C497.876,502.398,505.275,494.5,504.682,485.167z" fill="#32260d" data-original="#ffb000" class=""></path> <g xmlns="http://www.w3.org/2000/svg"> <polygon style="" points="76.865,342.386 76.865,502.398 133.656,502.398 133.656,322.316 " fill="#f2f2f2" data-original="#f2f2f2" class=""></polygon> <polygon style="" points="378.346,322.316 378.346,502.398 435.136,502.398 435.136,342.386 " fill="#f2f2f2" data-original="#f2f2f2" class=""></polygon> </g> <path xmlns="http://www.w3.org/2000/svg" style="" d="M345.339,310.65c-2.133-0.753-4.507-0.214-6.106,1.387l-7.284,7.294 c-20.886,20.918-48.418,31.378-75.95,31.378s-55.064-10.46-75.95-31.378l-7.284-7.294c-1.598-1.601-3.974-2.14-6.106-1.387 l-20.353,7.193l17.794,18.284c24.527,24.353,57.139,37.754,91.898,37.754s67.371-13.402,91.898-37.754l17.794-18.284L345.339,310.65 z" fill="#ed1c24" data-original="#ffa227" class=""></path> <g xmlns="http://www.w3.org/2000/svg"> <polygon style="" points="404.988,502.398 435.136,502.398 435.136,342.386 404.988,331.732 " fill="#e6e6e6" data-original="#e6e6e6" class=""></polygon> <polygon style="" points="103.508,502.398 133.656,502.398 133.656,322.316 103.508,332.97 " fill="#e6e6e6" data-original="#e6e6e6" class=""></polygon> </g> <ellipse xmlns="http://www.w3.org/2000/svg" transform="matrix(0.3784 -0.9256 0.9256 0.3784 48.2153 232.5504)" style="" cx="197.259" cy="80.375" rx="22.96" ry="17.296" fill="#e97d81" data-original="#ffa233" class=""></ellipse> <path xmlns="http://www.w3.org/2000/svg" style="" d="M511.954,484.704l-4.574-71.937c-2.078-32.674-23.341-60.826-54.17-71.722l-15.645-5.53l0,0 l-56.791-20.071c-0.001,0-0.002,0-0.003-0.001l-33.001-11.664c-0.324-0.114-0.651-0.213-0.98-0.3 c-0.139-0.037-0.278-0.065-0.417-0.098c-0.185-0.043-0.371-0.085-0.557-0.12c-0.181-0.034-0.364-0.061-0.547-0.088 c-0.138-0.02-0.275-0.038-0.412-0.053c-0.214-0.024-0.428-0.045-0.644-0.057c-0.087-0.006-0.173-0.008-0.262-0.011 c-0.188-0.008-0.376-0.024-0.565-0.024c-0.661,0-1.31,0.064-1.952,0.159c-0.032,0.005-0.063,0.009-0.095,0.014 c-1.204,0.187-2.365,0.538-3.46,1.044c-0.005,0.002-0.011,0.005-0.016,0.007c-0.537,0.249-1.058,0.53-1.56,0.851 c-0.017,0.011-0.035,0.02-0.052,0.031c-0.162,0.105-0.317,0.217-0.474,0.329c-0.176,0.124-0.349,0.253-0.519,0.387 c-0.114,0.09-0.228,0.179-0.34,0.273c-0.275,0.232-0.546,0.473-0.804,0.729l-26.85-8.263l-0.002-20.49 c0.455-0.305,0.902-0.624,1.352-0.937c0.051-0.035,0.101-0.069,0.151-0.105c20.653-14.435,36.495-37.407,42.149-60.113 c0.027-0.108,0.052-0.215,0.078-0.323c0.243-0.991,0.465-1.98,0.668-2.969c0.041-0.199,0.083-0.398,0.123-0.598 c0.424-2.15,0.757-4.294,0.988-6.423c0.036-0.324,0.062-0.646,0.093-0.97c0.067-0.715,0.124-1.428,0.168-2.139 c0.024-0.378,0.047-0.754,0.064-1.13c0.008-0.18,0.025-0.363,0.031-0.543h0.908c10.965,0,19.887-8.922,19.887-19.887v-24.678 c0-0.647-0.044-1.289-0.106-1.928c4.223-2.735,7.039-7.522,7.039-12.976V131.86c0-7.587-5.433-13.909-12.558-15.166v-3.176 c0-0.881-0.011-1.759-0.034-2.633c-0.194-7.654-1.265-15.255-3.184-22.594c-1.017-3.893-4.999-6.222-8.892-5.206 c-3.893,1.017-6.225,4.999-5.206,8.892c1.636,6.257,2.549,12.743,2.714,19.28c0.019,0.751,0.029,1.505,0.029,2.262v10.237 c0,4.024,3.262,7.287,7.286,7.287h4.685c0.277,0,0.587,0.336,0.587,0.819v10.521c0,0.483-0.309,0.819-0.587,0.819h-1.063H147.343 h-1.046c-0.278,0-0.588-0.336-0.588-0.819v-10.521c0-0.483,0.309-0.819,0.588-0.819h4.684c4.024,0,7.286-3.262,7.286-7.287V113.52 c0-0.756,0.01-1.51,0.03-2.263c1.011-39.815,30.362-73.484,68.294-80.105v27.906c0,13.766,11.2,24.967,24.967,24.967h8.888 c13.766,0,24.966-11.2,24.966-24.967V31.156c22.075,3.864,42.088,16.997,54.663,36.225c2.202,3.368,6.718,4.312,10.086,2.109 c3.367-2.202,4.313-6.719,2.109-10.086c-15.756-24.092-41.493-40.046-69.537-43.352c-4.117-8.14-12.558-13.737-22.287-13.737h-8.888 c-9.725,0-18.163,5.593-22.284,13.729c-22.12,2.579-42.698,12.862-58.367,29.271c-16.903,17.699-26.554,40.987-27.178,65.571 c-0.023,0.877-0.034,1.754-0.034,2.636v3.176c-7.123,1.258-12.558,7.579-12.558,15.166v10.521c0,5.446,2.808,10.23,7.024,12.966 c-0.063,0.642-0.106,1.288-0.106,1.938v24.679c0,10.965,8.922,19.886,19.887,19.886h0.902c0.015,0.431,0.047,0.865,0.07,1.297 c0.003,0.051,0.005,0.1,0.008,0.151c0.127,2.254,0.364,4.529,0.717,6.817c0.05,0.327,0.11,0.653,0.165,0.98 c0.114,0.681,0.237,1.363,0.371,2.045c0.101,0.522,0.206,1.044,0.318,1.567c0.085,0.394,0.179,0.788,0.271,1.182 c5.584,24.213,22.743,48.248,43.95,62.45l-0.002,20.25l-26.827,8.26c-0.257-0.256-0.525-0.495-0.8-0.725 c-0.112-0.094-0.226-0.183-0.34-0.275c-0.169-0.133-0.341-0.261-0.516-0.384c-0.158-0.113-0.315-0.226-0.477-0.331 c-0.012-0.008-0.024-0.014-0.036-0.022c-0.506-0.326-1.036-0.61-1.58-0.863c-0.003-0.001-0.005-0.002-0.008-0.004 c-1.096-0.506-2.258-0.858-3.464-1.046c-0.031-0.005-0.06-0.009-0.091-0.013c-0.642-0.095-1.292-0.16-1.954-0.16 c-0.189,0-0.377,0.016-0.565,0.024c-0.087,0.004-0.174,0.006-0.262,0.011c-0.215,0.013-0.43,0.034-0.644,0.057 c-0.138,0.015-0.274,0.034-0.411,0.053c-0.183,0.027-0.367,0.054-0.549,0.088c-0.184,0.035-0.368,0.076-0.552,0.119 c-0.141,0.033-0.282,0.061-0.422,0.099c-0.328,0.088-0.655,0.186-0.978,0.3l-20.353,7.192c-0.002,0.001-0.004,0.002-0.007,0.003 l-12.637,4.466c-0.003,0.001-0.006,0.002-0.01,0.003l-56.791,20.071l-0.002,0.001l-15.643,5.529 c-30.83,10.896-52.093,39.048-54.17,71.722l-0.549,8.624c-0.256,4.016,2.794,7.478,6.81,7.734c4,0.242,7.478-2.796,7.733-6.81 l0.549-8.624c1.705-26.836,19.167-49.958,44.482-58.905l5.931-2.096v142.422H23.463c-2.477,0-4.776-0.996-6.474-2.804 c-1.704-1.816-2.557-4.189-2.398-6.679l2.163-34.02c0.256-4.016-2.794-7.478-6.81-7.734c-4.014-0.254-7.478,2.794-7.734,6.81 l-2.163,34.02c-0.41,6.455,1.893,12.862,6.317,17.576c4.417,4.706,10.649,7.405,17.1,7.405h53.402h56.791h244.69h56.791h53.402 c6.451,0,12.683-2.699,17.1-7.405C510.062,497.565,512.364,491.159,511.954,484.704z M251.557,16.888h8.888 c4.802,0,8.841,3.278,10.029,7.711c0.008,0.032,0.011,0.063,0.019,0.095c0.116,0.452,0.202,0.89,0.26,1.319v0.001 c0.057,0.429,0.085,0.85,0.085,1.268v31.776c0,5.732-4.662,10.394-10.393,10.394h-8.888c-5.732,0-10.394-4.662-10.394-10.394V27.282 c0-0.418,0.028-0.839,0.085-1.267c0-0.002,0.001-0.004,0.001-0.004c0.057-0.43,0.144-0.867,0.26-1.318 c0.008-0.03,0.01-0.06,0.018-0.091C242.712,20.167,246.753,16.888,251.557,16.888z M144.339,326.267l14.54,14.942 c0.03,0.031,0.058,0.059,0.088,0.089c25.896,25.71,60.356,39.87,97.033,39.87s71.137-14.16,97.033-39.87 c0.03-0.03,0.058-0.058,0.088-0.089l14.54-14.942l3.397,1.201v167.643H140.942V327.469L144.339,326.267z M168.244,317.82l6.65,6.66 c21.58,21.613,50.384,33.516,81.107,33.516s59.527-11.903,81.107-33.516l6.65-6.66l8.774,3.101L342.723,331 c-23.144,22.956-53.938,35.595-86.722,35.595S192.423,353.956,169.28,331l-9.809-10.08L168.244,317.82z M173.389,199.671v-41.858 h165.215v36.694c0,0.019-0.003,0.038-0.003,0.057v4.908c0,0.158-0.01,0.317-0.011,0.475c-0.007,0.699-0.026,1.4-0.061,2.106 c-0.018,0.342-0.046,0.687-0.07,1.03c-0.041,0.565-0.087,1.131-0.146,1.699c-0.034,0.333-0.07,0.667-0.111,1.001 c-0.082,0.677-0.177,1.356-0.284,2.036c-0.032,0.203-0.058,0.404-0.093,0.607c-4.828,28.68-31.43,59.999-58.488,66.726l-0.989,0.246 c-9.63,2.396-16.453,3.781-22.828,3.781h-0.001c-6.45,0-13.085-1.365-23.072-3.883C202.642,267.781,173.389,230.322,173.389,199.671 z M359.351,181.964c0,2.93-2.383,5.314-5.314,5.314h-0.86v-29.503h6.174V181.964z M152.626,181.965v-24.191h6.19v29.503h-0.877 C155.01,187.278,152.626,184.895,152.626,181.965z M210.277,312.125c5.383-1.661,9.002-6.562,9.004-12.199l0.001-13.714 c3.162,1.311,6.369,2.4,9.602,3.216c10.865,2.739,18.705,4.325,26.634,4.325c0.001,0,0.001,0,0.002,0 c7.867,0,15.617-1.545,26.343-4.212l0.988-0.246c3.277-0.815,6.568-1.917,9.841-3.286l0.001,13.919 c0.002,5.634,3.62,10.534,9.008,12.197l20.552,6.324c-0.08,0.071-0.161,0.143-0.241,0.213c-0.998,0.878-2.01,1.734-3.036,2.569 c-0.156,0.127-0.313,0.251-0.47,0.377c-1.052,0.843-2.117,1.668-3.198,2.465c-0.117,0.086-0.236,0.169-0.354,0.256 c-1.134,0.828-2.28,1.636-3.444,2.412c-0.023,0.016-0.046,0.03-0.069,0.046c-1.171,0.781-2.359,1.532-3.56,2.26 c-0.09,0.054-0.179,0.112-0.27,0.166c-1.162,0.7-2.34,1.369-3.527,2.02c-0.158,0.086-0.315,0.174-0.474,0.261 c-1.157,0.625-2.329,1.225-3.509,1.803c-0.188,0.092-0.377,0.184-0.565,0.276c-1.175,0.566-2.36,1.108-3.557,1.627 c-0.19,0.082-0.382,0.164-0.573,0.245c-1.212,0.516-2.434,1.012-3.666,1.48c-0.162,0.061-0.324,0.12-0.486,0.18 c-1.275,0.477-2.559,0.931-3.855,1.356c-0.084,0.028-0.168,0.053-0.252,0.079c-1.322,0.429-2.654,0.83-3.996,1.204 c-0.058,0.017-0.116,0.035-0.174,0.051c-1.329,0.368-2.669,0.702-4.015,1.014c-0.159,0.037-0.317,0.076-0.476,0.112 c-1.297,0.294-2.603,0.56-3.916,0.803c-0.205,0.039-0.41,0.077-0.616,0.114c-1.294,0.231-2.595,0.437-3.902,0.618 c-0.219,0.031-0.438,0.059-0.658,0.088c-1.313,0.173-2.632,0.323-3.957,0.445c-0.199,0.018-0.399,0.034-0.599,0.051 c-1.359,0.117-2.721,0.212-4.091,0.275c-0.137,0.006-0.273,0.009-0.41,0.015c-1.441,0.06-2.886,0.097-4.336,0.097 c-1.451,0-2.896-0.037-4.336-0.097c-0.137-0.006-0.274-0.009-0.411-0.015c-1.37-0.062-2.732-0.158-4.091-0.275 c-0.199-0.017-0.399-0.033-0.6-0.051c-1.326-0.123-2.645-0.272-3.958-0.445c-0.219-0.029-0.437-0.058-0.655-0.088 c-1.308-0.181-2.609-0.387-3.904-0.618c-0.205-0.037-0.41-0.075-0.615-0.114c-1.313-0.244-2.62-0.508-3.918-0.803 c-0.159-0.036-0.315-0.075-0.474-0.112c-1.348-0.312-2.688-0.647-4.018-1.015c-0.057-0.016-0.114-0.034-0.171-0.05 c-1.345-0.374-2.68-0.777-4.004-1.207c-0.081-0.027-0.163-0.051-0.244-0.077c-1.297-0.424-2.582-0.88-3.86-1.358 c-0.161-0.06-0.322-0.118-0.483-0.178c-1.233-0.468-2.455-0.963-3.667-1.48c-0.191-0.081-0.383-0.163-0.574-0.246 c-1.195-0.518-2.38-1.06-3.555-1.626c-0.19-0.091-0.381-0.184-0.57-0.277c-1.178-0.577-2.348-1.175-3.503-1.8 c-0.162-0.087-0.322-0.177-0.483-0.266c-1.184-0.648-2.358-1.317-3.517-2.015c-0.095-0.057-0.189-0.117-0.284-0.175 c-1.193-0.723-2.373-1.471-3.538-2.245c-0.029-0.019-0.057-0.037-0.086-0.056c-1.158-0.774-2.299-1.578-3.428-2.401 c-0.123-0.09-0.248-0.177-0.372-0.269c-1.075-0.793-2.135-1.612-3.18-2.451c-0.164-0.131-0.328-0.261-0.491-0.393 c-1.021-0.828-2.027-1.681-3.018-2.553c-0.084-0.074-0.167-0.149-0.252-0.223L210.277,312.125z M84.151,495.112V347.539 l42.218-14.92v162.492H84.151z M385.632,495.112V332.62l42.218,14.92v147.572H385.632z M495.011,492.307 c-1.698,1.809-3.997,2.804-6.474,2.804h-46.115V352.689l5.931,2.096c25.315,8.947,42.777,32.069,44.482,58.905l4.574,71.937 C497.568,488.119,496.716,490.49,495.011,492.307z" fill="#051c1b" data-original="#051c1b" class=""></path> <g xmlns="http://www.w3.org/2000/svg"> </g> <g xmlns="http://www.w3.org/2000/svg"> </g> <g xmlns="http://www.w3.org/2000/svg"> </g> <g xmlns="http://www.w3.org/2000/svg"> </g> <g xmlns="http://www.w3.org/2000/svg"> </g> <g xmlns="http://www.w3.org/2000/svg"> </g> <g xmlns="http://www.w3.org/2000/svg"> </g> <g xmlns="http://www.w3.org/2000/svg"> </g> <g xmlns="http://www.w3.org/2000/svg"> </g> <g xmlns="http://www.w3.org/2000/svg"> </g> <g xmlns="http://www.w3.org/2000/svg"> </g> <g xmlns="http://www.w3.org/2000/svg"> </g> <g xmlns="http://www.w3.org/2000/svg"> </g> <g xmlns="http://www.w3.org/2000/svg"> </g> <g xmlns="http://www.w3.org/2000/svg"> </g> </g> </svg> 