<?xml version="1.0" encoding="UTF-8"?> <svg xmlns="http://www.w3.org/2000/svg" xmlns:xlink="http://www.w3.org/1999/xlink" xmlns:svgjs="http://svgjs.com/svgjs" width="512" height="512" x="0" y="0" viewBox="0 0 512 512" style="enable-background:new 0 0 512 512" xml:space="preserve" class=""> <g> <path xmlns="http://www.w3.org/2000/svg" style="" d="M343.114,340.44V137.558c0-2.7,2.189-4.889,4.889-4.889h41.05c8.316,0,15.058-6.742,15.058-15.058 c0-7.849-6.363-14.212-14.212-14.212h-93.255c-2.924,0-5.518,1.878-6.43,4.656l-18.852,57.378c-0.659,2.007-2.533,3.363-4.645,3.363 H36.992c-3.453,0-6.602,1.974-8.106,5.081L8.174,216.643c-1.514,3.125-1.096,6.842,1.074,9.553L38.91,263.11l17.528,21.813 l1.2,1.493l43.41,54.023h242.066V340.44z" fill="#ed1c24" data-original="#ffcc5a"></path> <path xmlns="http://www.w3.org/2000/svg" style="" d="M348.003,132.668h-15.746c-9.734,0-17.625,7.89-17.625,17.623v133.237 c0,10.504-8.516,19.019-19.02,19.019H137.009H70.6l30.448,37.892h242.065v-37.892v-164.99c0-0.338,0.034-0.667,0.099-0.985 C343.669,134.344,345.64,132.668,348.003,132.668z" fill="#a3262a" data-original="#ffb000" class=""></path> <path xmlns="http://www.w3.org/2000/svg" style="" d="M489.556,340.44H343.113V157.496h86.601c6.455,0,12.467,3.277,15.965,8.702l40.846,63.349 c1.978,3.068,3.031,6.642,3.031,10.292V340.44z" fill="#979797" data-original="#ffa227" class=""></path> <path xmlns="http://www.w3.org/2000/svg" style="" d="M486.526,229.546l-40.846-63.349c-3.498-5.424-9.51-8.702-15.965-8.702h-28.7 c6.455,0,12.467,3.277,15.965,8.702l40.846,63.349c1.978,3.068,3.031,6.642,3.031,10.292V340.44h28.7V239.839 C489.556,236.188,488.504,232.615,486.526,229.546z" fill="#a5a5a5" data-original="#f78b0b" class=""></path> <path xmlns="http://www.w3.org/2000/svg" style="" d="M76.307,358.701h418.097c5.693,0,10.309-4.615,10.309-10.309v-6.889 c0-5.693-4.615-10.309-10.309-10.309H77.019c-7.792,0-14.109,6.317-14.109,14.109l0,0C62.91,352.702,68.908,358.701,76.307,358.701z " fill="#b3b3b3" data-original="#b3b3b3"></path> <path xmlns="http://www.w3.org/2000/svg" style="" d="M494.404,331.194h-18.557V358.7h18.557c5.693,0,10.309-4.615,10.309-10.308v-6.89 C504.713,335.809,500.098,331.194,494.404,331.194z" fill="#999999" data-original="#999999"></path> <path xmlns="http://www.w3.org/2000/svg" style="" d="M464.572,242.226L464.572,242.226c0-0.407-0.117-0.806-0.338-1.148l-37.158-57.629 c-0.39-0.605-1.061-0.971-1.781-0.971h-55.078c-1.17,0-2.119,0.949-2.119,2.119v57.629c0,1.17,0.949,2.119,2.119,2.119h92.236 C463.623,244.345,464.572,243.396,464.572,242.226z" fill="#aeffff" data-original="#aeffff" class=""></path> <path xmlns="http://www.w3.org/2000/svg" style="" d="M464.234,241.078l-37.158-57.629c-0.39-0.605-1.061-0.971-1.781-0.971h-33.219l40.112,61.867h30.265 c1.17,0,2.119-0.949,2.119-2.119C464.572,241.819,464.455,241.42,464.234,241.078z" fill="#84f1f7" data-original="#84f1f7" class=""></path> <circle xmlns="http://www.w3.org/2000/svg" style="" cx="410.93" cy="357.85" r="50.757" fill="#565353" data-original="#686868" class=""></circle> <path xmlns="http://www.w3.org/2000/svg" style="" d="M410.93,307.096c-5.014,0-9.853,0.739-14.428,2.093c21.001,6.217,36.328,25.644,36.328,48.66 s-15.327,42.443-36.328,48.66c4.575,1.354,9.414,2.093,14.428,2.093c28.032,0,50.757-22.723,50.757-50.753 S438.962,307.096,410.93,307.096z" fill="#403e3e" data-original="#4f4f4f" class=""></path> <circle xmlns="http://www.w3.org/2000/svg" style="" cx="410.93" cy="357.85" r="21.15" fill="#b3b3b3" data-original="#b3b3b3"></circle> <circle xmlns="http://www.w3.org/2000/svg" style="" cx="137.29" cy="357.85" r="50.757" fill="#565353" data-original="#686868" class=""></circle> <path xmlns="http://www.w3.org/2000/svg" style="" d="M137.293,307.096c-5.014,0-9.853,0.739-14.428,2.093c21.001,6.217,36.328,25.644,36.328,48.66 s-15.327,42.443-36.328,48.66c4.575,1.354,9.414,2.093,14.428,2.093c28.032,0,50.757-22.723,50.757-50.753 S165.325,307.096,137.293,307.096z" fill="#403e3e" data-original="#4f4f4f" class=""></path> <circle xmlns="http://www.w3.org/2000/svg" style="" cx="137.29" cy="357.85" r="21.15" fill="#b3b3b3" data-original="#b3b3b3"></circle> <g xmlns="http://www.w3.org/2000/svg"> <path style="" d="M106.984,197.892c-3.6-1.799-7.977-0.343-9.776,3.258l-26.273,52.527 c-1.8,3.599-0.342,7.976,3.258,9.776c1.047,0.523,2.159,0.771,3.254,0.771c2.672,0,5.246-1.476,6.522-4.03l26.273-52.527 C112.042,204.07,110.583,199.693,106.984,197.892z" fill="#051c1b" data-original="#051c1b"></path> <path style="" d="M108.403,291.481c1.047,0.523,2.159,0.771,3.254,0.771c2.672,0,5.246-1.476,6.523-4.03l40.29-80.553 c1.8-3.6,0.342-7.976-3.257-9.777c-3.6-1.799-7.976-0.343-9.777,3.258l-40.29,80.553 C103.345,285.303,104.804,289.68,108.403,291.481z" fill="#051c1b" data-original="#051c1b"></path> <path style="" d="M156.631,291.481c1.047,0.523,2.159,0.771,3.254,0.771c2.672,0,5.246-1.476,6.523-4.03l40.29-80.553 c1.8-3.6,0.342-7.976-3.257-9.777c-3.6-1.799-7.977-0.343-9.777,3.258l-40.29,80.553 C151.573,285.303,153.032,289.68,156.631,291.481z" fill="#051c1b" data-original="#051c1b"></path> <path style="" d="M251.669,197.892c-3.6-1.799-7.977-0.343-9.777,3.258l-40.29,80.554 c-1.8,3.599-0.342,7.976,3.258,9.776c1.047,0.523,2.158,0.771,3.254,0.771c2.672,0,5.246-1.476,6.523-4.03l40.29-80.554 C256.726,204.07,255.268,199.693,251.669,197.892z" fill="#051c1b" data-original="#051c1b"></path> <path style="" d="M253.088,291.481c1.047,0.523,2.159,0.771,3.254,0.771c2.672,0,5.246-1.476,6.523-4.03l40.29-80.554 c1.8-3.599,0.342-7.976-3.258-9.776c-3.6-1.799-7.977-0.343-9.777,3.258l-40.29,80.554 C248.03,285.303,249.488,289.68,253.088,291.481z" fill="#051c1b" data-original="#051c1b"></path> <path style="" d="M14.937,221.643c-0.412-0.515-0.492-1.231-0.204-1.824l20.711-42.766 c0.286-0.589,0.894-0.971,1.549-0.971h182.082c4.024,0,7.287-3.262,7.287-7.287c0-4.025-3.262-7.287-7.287-7.287H36.992 c-6.204,0-11.96,3.607-14.665,9.191L1.616,213.467c-2.723,5.623-1.96,12.406,1.952,17.295l29.661,36.912 c1.439,1.791,3.552,2.722,5.685,2.722c1.602,0,3.214-0.526,4.559-1.606c3.137-2.521,3.637-7.107,1.116-10.245L14.937,221.643z" fill="#051c1b" data-original="#051c1b"></path> <path style="" d="M371.003,274.658v-9.943c0-4.025-3.262-7.287-7.287-7.287s-7.287,3.262-7.287,7.287v9.943 c0,4.025,3.262,7.287,7.287,7.287S371.003,278.683,371.003,274.658z" fill="#051c1b" data-original="#051c1b"></path> <path style="" d="M410.93,329.413c-15.68,0-28.437,12.756-28.437,28.435c0,15.68,12.757,28.435,28.437,28.435 s28.437-12.756,28.437-28.435C439.367,342.168,426.611,329.413,410.93,329.413z M410.93,371.71 c-7.644,0-13.863-6.218-13.863-13.862s6.219-13.862,13.863-13.862s13.863,6.218,13.863,13.862S418.575,371.71,410.93,371.71z" fill="#051c1b" data-original="#051c1b"></path> <path style="" d="M137.293,329.413c-15.68,0-28.437,12.756-28.437,28.435c0,15.68,12.757,28.435,28.437,28.435 s28.437-12.756,28.437-28.435C165.729,342.168,152.973,329.413,137.293,329.413z M137.293,371.71 c-7.644,0-13.863-6.218-13.863-13.862s6.219-13.862,13.863-13.862s13.863,6.218,13.863,13.862S144.937,371.71,137.293,371.71z" fill="#051c1b" data-original="#051c1b"></path> <path style="" d="M370.217,251.632h92.236c5.187,0,9.406-4.219,9.406-9.405c0-1.81-0.518-3.572-1.501-5.098 l-37.157-57.626c-1.739-2.699-4.695-4.311-7.906-4.311h-55.078c-5.187,0-9.406,4.219-9.406,9.405v57.63 C360.811,247.412,365.03,251.632,370.217,251.632z M375.384,189.765h47.094l30.494,47.293h-77.588L375.384,189.765L375.384,189.765 z" fill="#051c1b" data-original="#051c1b"></path> <path style="" d="M496.843,324.097v-84.259c0-5.062-1.45-9.986-4.193-14.241l-40.846-63.348 c-4.862-7.539-13.119-12.04-22.089-12.04H350.4v-10.254h38.652c12.321,0,22.345-10.024,22.345-22.344 c0-11.854-9.644-21.499-21.499-21.499h-93.255c-6.087,0-11.453,3.885-13.353,9.668l-18.31,55.729h-16.699 c-4.024,0-7.287,3.262-7.287,7.287c0,4.025,3.262,7.287,7.287,7.287h18.434c5.273,0,9.922-3.365,11.569-8.376l18.734-57.021h92.88 c3.818,0,6.925,3.106,6.925,6.925c0,4.285-3.486,7.771-7.771,7.771h-41.05c-6.714,0-12.176,5.462-12.176,12.176v19.938v166.412 H184.333c-10.554-14.584-27.702-24.099-47.041-24.099c-17.375,0-32.98,7.684-43.627,19.82c0.001-0.001,0.002-0.003,0.004-0.004 l-30.54-38.006c-2.52-3.137-7.107-3.636-10.244-1.116c-3.137,2.521-3.637,7.107-1.116,10.245l26.646,33.16h-1.397 c-11.798,0-21.396,9.598-21.396,21.395c0,11.405,9.279,20.685,20.684,20.685h3.525c3.972,28.161,28.219,49.9,57.461,49.9 s53.489-21.738,57.461-49.9H353.47c3.972,28.161,28.219,49.9,57.461,49.9s53.489-21.738,57.461-49.9h26.013 c9.702,0,17.595-7.893,17.595-17.595v-6.889C512,332.63,505.392,325.291,496.843,324.097z M350.4,164.782h79.314 c3.996,0,7.675,2.006,9.841,5.364l40.846,63.347c1.222,1.896,1.868,4.089,1.868,6.345v84.07H457.97 c-10.554-14.584-27.702-24.099-47.041-24.099s-36.487,9.515-47.04,24.099H350.4V164.782z M343.114,338.481h13.109v-0.001 c-1.463,4.119-2.473,8.449-2.97,12.934l0,0H194.971l0,0c-0.497-4.484-1.507-8.814-2.97-12.934v0.001H343.114z M70.197,345.303 c0-3.762,3.06-6.822,6.822-6.822h5.566l0,0c-1.463,4.119-2.473,8.449-2.97,12.934l0,0h-3.307 C72.938,351.414,70.197,348.673,70.197,345.303z M137.293,401.314c-23.969,0-43.47-19.499-43.47-43.466s19.501-43.466,43.47-43.466 s43.47,19.499,43.47,43.466S161.262,401.314,137.293,401.314z M410.93,401.314c-23.969,0-43.47-19.499-43.47-43.466 s19.501-43.466,43.47-43.466s43.47,19.499,43.47,43.466S434.9,401.314,410.93,401.314z M497.427,348.392 c0,1.666-1.356,3.022-3.022,3.022h-25.796l0,0c-0.497-4.484-1.507-8.814-2.97-12.934l0,0h23.918h4.848 c1.666,0,3.022,1.356,3.022,3.022V348.392z" fill="#051c1b" data-original="#051c1b"></path> </g> <g xmlns="http://www.w3.org/2000/svg"> </g> <g xmlns="http://www.w3.org/2000/svg"> </g> <g xmlns="http://www.w3.org/2000/svg"> </g> <g xmlns="http://www.w3.org/2000/svg"> </g> <g xmlns="http://www.w3.org/2000/svg"> </g> <g xmlns="http://www.w3.org/2000/svg"> </g> <g xmlns="http://www.w3.org/2000/svg"> </g> <g xmlns="http://www.w3.org/2000/svg"> </g> <g xmlns="http://www.w3.org/2000/svg"> </g> <g xmlns="http://www.w3.org/2000/svg"> </g> <g xmlns="http://www.w3.org/2000/svg"> </g> <g xmlns="http://www.w3.org/2000/svg"> </g> <g xmlns="http://www.w3.org/2000/svg"> </g> <g xmlns="http://www.w3.org/2000/svg"> </g> <g xmlns="http://www.w3.org/2000/svg"> </g> </g> </svg> 